<svg xmlns="http://www.w3.org/2000/svg" viewBox="0 0 1250.27 319"><defs><style>.cls-1,.cls-3,.cls-6{fill:#231f20;}.cls-2{fill:none;stroke:#231f20;stroke-miterlimit:10;stroke-width:6px;}.cls-3{font-size:175px;font-family:Telex-Regular, Telex;}.cls-4{letter-spacing:-0.07em;}.cls-5{letter-spacing:0em;}.cls-6{font-size:77px;font-family:Verdana;letter-spacing:0.03em;}.cls-7{letter-spacing:0.07em;}.cls-8{letter-spacing:0.01em;}.cls-9{letter-spacing:0.07em;}</style></defs><title>new final koshayur logo2Asset 1SVG</title><g id="Layer_2" data-name="Layer 2"><g id="Layer_1-2" data-name="Layer 1"><path class="cls-1" d="M85.48,205.21C78,199,59.9,181.47,51.27,151,51.62,151.69,72.21,192.78,85.48,205.21Z"/><path class="cls-1" d="M159.5,13.5a146,146,0,1,0,146,146A146,146,0,0,0,159.5,13.5Zm71.06,76.09a146.29,146.29,0,0,1,3,49.66,103.68,103.68,0,0,0-21.92,16.27,228.06,228.06,0,0,0-20.42,22.73,120.75,120.75,0,0,0-3.49-54.09A121.85,121.85,0,0,1,230.56,89.59Zm-142.13,0a121.85,121.85,0,0,1,42.84,34.57,120.89,120.89,0,0,0-3.5,54.09,225.6,225.6,0,0,0-20.42-22.73,103.88,103.88,0,0,0-21.91-16.27A146.29,146.29,0,0,1,88.43,89.59Zm52.16,144a12.13,12.13,0,0,1-1.5,2.19c-11.23,13.4-42.74-.31-72.41-28.14S33.31,133,33.31,133s39.67,1.2,68.77,29.69c22.82,22.41,39.3,46,40.27,61.7-10.82-10.16-35.85-22.64-38.49-23.94A126.78,126.78,0,0,1,140.59,233.56Zm23.48-4.64-.28,0-.2,0-.13-1.34c3.86-14.48-.81-28.18-1.63-30.68-4.47-14.55-3.64-24-3.57-24.76-2.64,11.89.54,24.55.54,24.55a57.76,57.76,0,0,1,1.33,14.65c0,.72-.06,1.42-.13,2.13s-.14,1.38-.22,2c-.19,1.34-.42,2.64-.69,3.89a44.94,44.94,0,0,1-1.53,5.33l-.08.24-.14.34c-.1.29-.23.63-.37,1-.19.49-.4,1-.62,1.45l-.58,1.2h-.54l-.29,0c-12.49-9.52-20.3-36.32-20.18-72.36,0-1.44,0-2.85.07-4.25,1.15-35.48,15-58.15,24.66-72.26.46-.65.89-1.27,1.31-1.89a.24.24,0,0,1,.42,0c2.36,3.47,22.94,35.35,22.94,73.4h0c0,.24,0,.49,0,.73,0,1.39.07,2.8.07,4.23C184.38,192.61,176.57,219.41,164.07,228.92Zm88.23-21.31c-29.65,27.83-61.17,41.54-72.4,28.14a12,12,0,0,1-1.48-2.19,126.15,126.15,0,0,1,36.72-33.15c-2.65,1.3-27.69,13.78-38.5,23.94,1-15.72,17.45-39.29,40.28-61.7C246,134.16,285.69,133,285.69,133S282,179.78,252.3,207.61Zm-17.78-2.23c7.49-6.2,25.56-23.73,34.19-54.19C268.36,151.89,247.79,193,234.52,205.38Z"/><circle class="cls-2" cx="159.5" cy="159.5" r="156.5"/><text class="cls-3" transform="translate(349.65 172.16)">KOSH<tspan class="cls-4" x="465.32" y="0">A</tspan><tspan class="cls-5" x="564.9" y="0">YUR</tspan></text><text class="cls-6" transform="translate(363.51 271.79) scale(1.01 1)">A<tspan class="cls-7" x="54.87" y="0">YURVEDIC SHE</tspan><tspan class="cls-8" x="708.05" y="0">A</tspan><tspan class="cls-9" x="761.42" y="0">TH</tspan></text></g></g></svg>